<svg xmlns="http://www.w3.org/2000/svg" xmlns:xlink="http://www.w3.org/1999/xlink" viewBox="0,0,256,256" width="64px" height="64px" fill-rule="nonzero"><defs><linearGradient x1="32" y1="25.213" x2="32" y2="36.722" gradientUnits="userSpaceOnUse" id="color-1"><stop offset="0" stop-color="#6dc7ff"></stop><stop offset="1" stop-color="#e6abff"></stop></linearGradient><linearGradient x1="32" y1="7.426" x2="32" y2="53.44" gradientUnits="userSpaceOnUse" id="color-2"><stop offset="0" stop-color="#1a6dff"></stop><stop offset="1" stop-color="#c822ff"></stop></linearGradient></defs><g fill="none" fill-rule="nonzero" stroke="none" stroke-width="1" stroke-linecap="butt" stroke-linejoin="miter" stroke-miterlimit="10" stroke-dasharray="" stroke-dashoffset="0" font-family="none" font-weight="none" font-size="none" text-anchor="none" style="mix-blend-mode: normal"><g transform="scale(4,4)"><circle cx="32" cy="32" r="6" fill="url(#color-1)"></circle><path d="M58,32c0,-3.758 -4.243,-7.017 -10.853,-8.992c0.221,-1.031 0.407,-2.045 0.524,-3.015c0.657,-5.483 -0.483,-9.323 -3.211,-10.813c-2.729,-1.489 -6.574,-0.372 -10.831,3.146c-0.544,0.449 -1.087,0.938 -1.629,1.45c-0.542,-0.513 -1.085,-1.001 -1.629,-1.45c-4.257,-3.518 -8.104,-4.634 -10.831,-3.146c-2.728,1.489 -3.868,5.329 -3.211,10.813c0.116,0.971 0.303,1.984 0.524,3.015c-6.61,1.975 -10.853,5.234 -10.853,8.992c0,3.758 4.243,7.017 10.853,8.992c-0.221,1.031 -0.407,2.045 -0.524,3.015c-0.657,5.483 0.483,9.323 3.211,10.813c0.789,0.431 1.67,0.643 2.628,0.643c2.357,0 5.177,-1.287 8.203,-3.788c0.544,-0.449 1.087,-0.938 1.629,-1.45c0.542,0.513 1.085,1.001 1.629,1.45c3.026,2.501 5.846,3.788 8.203,3.788c0.958,0 1.84,-0.213 2.628,-0.643c2.728,-1.489 3.868,-5.329 3.211,-10.813c-0.116,-0.971 -0.303,-1.984 -0.524,-3.015c6.61,-1.975 10.853,-5.234 10.853,-8.992zM34.902,13.866c3.53,-2.917 6.665,-3.987 8.599,-2.931c1.934,1.055 2.729,4.27 2.184,8.818c-0.105,0.879 -0.273,1.796 -0.469,2.729c-2.117,-0.519 -4.43,-0.915 -6.892,-1.166c-1.564,-2.275 -3.215,-4.351 -4.908,-6.132c0.494,-0.466 0.99,-0.908 1.486,-1.318zM39.899,36.313c-0.853,1.562 -1.76,3.055 -2.702,4.474c-1.651,0.138 -3.386,0.213 -5.197,0.213c-1.811,0 -3.546,-0.075 -5.198,-0.213c-0.941,-1.42 -1.849,-2.912 -2.702,-4.474c-0.784,-1.435 -1.499,-2.878 -2.142,-4.313c0.643,-1.434 1.358,-2.877 2.142,-4.313c0.853,-1.562 1.76,-3.055 2.702,-4.474c1.652,-0.138 3.387,-0.213 5.198,-0.213c1.811,0 3.546,0.075 5.198,0.213c0.941,1.42 1.849,2.912 2.702,4.474c0.784,1.435 1.499,2.878 2.142,4.313c-0.643,1.434 -1.359,2.877 -2.143,4.313zM43.078,34.487c0.68,1.739 1.238,3.444 1.676,5.096c-1.544,0.376 -3.21,0.694 -5.009,0.929c0.657,-1.05 1.3,-2.124 1.909,-3.241c0.507,-0.925 0.975,-1.855 1.424,-2.784zM32,47.403c-1.272,-1.341 -2.522,-2.863 -3.729,-4.513c1.216,0.071 2.459,0.11 3.729,0.11c1.27,0 2.513,-0.039 3.729,-0.11c-1.207,1.65 -2.457,3.172 -3.729,4.513zM24.254,40.512c-1.799,-0.235 -3.465,-0.553 -5.009,-0.929c0.438,-1.652 0.996,-3.358 1.676,-5.096c0.45,0.93 0.918,1.859 1.423,2.785c0.61,1.116 1.253,2.19 1.91,3.24zM20.922,29.513c-0.68,-1.739 -1.238,-3.445 -1.676,-5.096c1.544,-0.376 3.21,-0.694 5.009,-0.929c-0.657,1.05 -1.3,2.124 -1.909,3.241c-0.507,0.925 -0.975,1.855 -1.424,2.784zM32,16.597c1.272,1.341 2.522,2.863 3.729,4.513c-1.216,-0.071 -2.459,-0.11 -3.729,-0.11c-1.27,0 -2.513,0.039 -3.729,0.11c1.207,-1.65 2.457,-3.172 3.729,-4.513zM41.655,26.729c-0.609,-1.116 -1.252,-2.19 -1.909,-3.241c1.799,0.235 3.465,0.553 5.009,0.929c-0.438,1.652 -0.996,3.358 -1.676,5.096c-0.45,-0.929 -0.918,-1.859 -1.424,-2.784zM18.315,19.754c-0.546,-4.549 0.25,-7.764 2.184,-8.818c0.488,-0.267 1.053,-0.397 1.681,-0.397c1.86,0 4.278,1.147 6.918,3.328c0.496,0.41 0.993,0.852 1.488,1.319c-1.693,1.781 -3.345,3.856 -4.908,6.132c-2.463,0.251 -4.776,0.648 -6.892,1.166c-0.198,-0.934 -0.365,-1.851 -0.471,-2.73zM8,32c0,-2.6 3.47,-5.303 9.317,-7.06c0.606,2.279 1.437,4.654 2.471,7.06c-1.034,2.407 -1.865,4.782 -2.471,7.06c-5.847,-1.757 -9.317,-4.46 -9.317,-7.06zM29.098,50.134c-3.53,2.917 -6.662,3.989 -8.599,2.931c-1.934,-1.055 -2.729,-4.27 -2.184,-8.818c0.105,-0.879 0.273,-1.796 0.469,-2.729c2.117,0.519 4.43,0.915 6.892,1.166c1.564,2.275 3.215,4.351 4.908,6.132c-0.494,0.466 -0.99,0.908 -1.486,1.318zM45.685,44.246c0.546,4.549 -0.25,7.764 -2.184,8.818c-1.934,1.059 -5.068,-0.014 -8.599,-2.931c-0.496,-0.41 -0.993,-0.852 -1.488,-1.319c1.693,-1.781 3.345,-3.856 4.908,-6.132c2.463,-0.251 4.776,-0.648 6.892,-1.166c0.198,0.934 0.365,1.851 0.471,2.73zM46.683,39.06c-0.606,-2.279 -1.437,-4.654 -2.471,-7.06c1.034,-2.407 1.865,-4.782 2.471,-7.06c5.847,1.757 9.317,4.46 9.317,7.06c0,2.6 -3.47,5.303 -9.317,7.06z" fill="url(#color-2)"></path></g></g><g fill="#ffffff" fill-rule="nonzero" stroke="none" stroke-width="1" stroke-linecap="butt" stroke-linejoin="miter" stroke-miterlimit="10" stroke-dasharray="" stroke-dashoffset="0" font-family="none" font-weight="none" font-size="none" text-anchor="none" style="mix-blend-mode: normal"><g><path d="M186.02,217.615l-3.2,-6.25h-2.8v6.25h-3.52v-17.06h6.34c2.02,0 3.57667,0.45 4.67,1.35c1.09333,0.89333 1.64,2.16 1.64,3.8v0c0,1.16667 -0.25333,2.14 -0.76,2.92c-0.5,0.77333 -1.26333,1.39 -2.29,1.85v0l3.69,6.98v0.16zM180.02,203.405v5.12h2.84c0.88,0 1.56333,-0.22667 2.05,-0.68c0.48,-0.44667 0.72,-1.06333 0.72,-1.85v0c0,-0.80667 -0.22667,-1.44 -0.68,-1.9c-0.46,-0.46 -1.16333,-0.69 -2.11,-0.69v0zM197.43,217.845v0c-1.86,0 -3.37333,-0.57 -4.54,-1.71c-1.16667,-1.14 -1.75,-2.66 -1.75,-4.56v0v-0.32c0,-1.27333 0.24667,-2.41333 0.74,-3.42c0.49333,-1.00667 1.19,-1.78 2.09,-2.32c0.9,-0.54 1.93,-0.81 3.09,-0.81v0c1.73333,0 3.09667,0.54667 4.09,1.64c1,1.09333 1.5,2.64333 1.5,4.65v0v1.38h-8.08c0.11333,0.82667 0.44333,1.49 0.99,1.99c0.55333,0.5 1.25333,0.75 2.1,0.75v0c1.3,0 2.31667,-0.47 3.05,-1.41v0l1.67,1.86c-0.50667,0.72 -1.19333,1.28 -2.06,1.68c-0.86667,0.4 -1.83,0.6 -2.89,0.6zM197.05,207.445v0c-0.67333,0 -1.22,0.22667 -1.64,0.68c-0.42,0.45333 -0.68667,1.1 -0.8,1.94v0h4.71v-0.27c-0.01333,-0.74667 -0.21667,-1.32667 -0.61,-1.74c-0.39333,-0.40667 -0.94667,-0.61 -1.66,-0.61zM215.34,217.615h-3.42c-0.16,-0.30667 -0.27333,-0.68667 -0.34,-1.14v0c-0.82,0.91333 -1.88667,1.37 -3.2,1.37v0c-1.24,0 -2.27,-0.35667 -3.09,-1.07c-0.81333,-0.72 -1.22,-1.62667 -1.22,-2.72v0c0,-1.34667 0.49667,-2.38 1.49,-3.1c0.99333,-0.71333 2.43333,-1.07667 4.32,-1.09v0h1.56v-0.72c0,-0.58667 -0.15,-1.05667 -0.45,-1.41c-0.30667,-0.35333 -0.78333,-0.53 -1.43,-0.53v0c-0.56667,0 -1.01333,0.13667 -1.34,0.41c-0.32667,0.27333 -0.49,0.65 -0.49,1.13v0h-3.38c0,-0.73333 0.22667,-1.41333 0.68,-2.04c0.45333,-0.62667 1.09333,-1.11667 1.92,-1.47c0.82667,-0.35333 1.75667,-0.53 2.79,-0.53v0c1.56,0 2.8,0.39 3.72,1.17c0.92,0.78667 1.38,1.89 1.38,3.31v0v5.5c0.00667,1.20667 0.17333,2.11667 0.5,2.73v0zM209.12,215.255v0c0.5,0 0.96,-0.11 1.38,-0.33c0.42,-0.22 0.73333,-0.52 0.94,-0.9v0v-2.18h-1.27c-1.69333,0 -2.59667,0.58667 -2.71,1.76v0l-0.01,0.2c0,0.42 0.15,0.76667 0.45,1.04c0.29333,0.27333 0.7,0.41 1.22,0.41zM222.71,215.115v0c0.62667,0 1.13333,-0.17 1.52,-0.51c0.39333,-0.34667 0.59667,-0.80333 0.61,-1.37v0h3.18c-0.00667,0.86 -0.24,1.64667 -0.7,2.36c-0.46667,0.71333 -1.1,1.26667 -1.9,1.66c-0.8,0.39333 -1.68333,0.59 -2.65,0.59v0c-1.81333,0 -3.24333,-0.57333 -4.29,-1.72c-1.04667,-1.15333 -1.57,-2.74667 -1.57,-4.78v0v-0.22c0,-1.95333 0.52,-3.51333 1.56,-4.68c1.04,-1.16 2.46667,-1.74 4.28,-1.74v0c1.58,0 2.85,0.45 3.81,1.35c0.96,0.9 1.44667,2.1 1.46,3.6v0h-3.18c-0.01333,-0.65333 -0.21667,-1.18667 -0.61,-1.6c-0.38667,-0.40667 -0.9,-0.61 -1.54,-0.61v0c-0.79333,0 -1.39,0.28667 -1.79,0.86c-0.4,0.57333 -0.6,1.50333 -0.6,2.79v0v0.36c0,1.3 0.19667,2.23667 0.59,2.81c0.4,0.56667 1.00667,0.85 1.82,0.85zM230.62,201.815h3.39v3.12h2.17v2.48h-2.17v6.33c0,0.47333 0.09,0.81 0.27,1.01c0.18,0.20667 0.52333,0.31 1.03,0.31v0c0.37333,0 0.70333,-0.03 0.99,-0.09v0v2.57c-0.66,0.2 -1.34333,0.3 -2.05,0.3v0c-2.37333,0 -3.58333,-1.19667 -3.63,-3.59v0v-6.84h-1.85v-2.48h1.85z"></path></g></g></svg>